# xmcd CD database file
# Copyright (C) 1993-1998 Ti Kan
# 
# Track frame offsets:
#     183
#     18423
#     36098
#     60673
#     78895
#     85503
#     108903
#     122395
#     138238
#     160180
#     177880
#     189890
#     210235
#     221835
#     241948
# 
# Disc length: 3454 seconds
# 
# Revision: 1
# Processed by: cddbd v1.4b41PL1 Copyright (c) Steve Scherf et al.
# Submitted via: DiscPlay 4.0.3
# 
DISCID=b10d7c0f
DTITLE=Lightnin'  Hopkins - Mojo Hand
DYEAR=1900
DGENRE=
TTITLE0=Shake that thing
TTITLE1=I'm leavin' you now
TTITLE2=Walk a long time
TTITLE3=Bring me my shotgun
TTITLE4=Just picking
TTITLE5=Last night
TTITLE6=Mojo hand
TTITLE7=Coffee for mama
TTITLE8=Awful dream
TTITLE9=Black mare trot
TTITLE10=Have you ever loved a woman
TTITLE11=Glory be
TTITLE12=Sometimes she will
TTITLE13=Shine of moon
TTITLE14=Santa
EXTD=
EXTT0=
EXTT1=
EXTT2=
EXTT3=
EXTT4=
EXTT5=
EXTT6=
EXTT7=
EXTT8=
EXTT9=
EXTT10=
EXTT11=
EXTT12=
EXTT13=
EXTT14=
PLAYORDER=
